{"accessors":[{"name":"Base_Circle-Mesh_0_positions","componentType":5126,"count":228,"min":[-0.4499340057373047,-0.255279004573822,-0.4499340057373047],"max":[0.4499340057373047,0.026505999267101288,0.4499340057373047],"type":"VEC3","bufferView":0,"byteOffset":0},{"name":"Base_Circle-Mesh_0_normals","componentType":5126,"count":228,"min":[-0.8971505761146545,-0.8744392991065979,-0.8971505761146545],"max":[0.8971505761146545,0.729830265045166,0.8971505761146545],"type":"VEC3","bufferView":1,"byteOffset":0},{"name":"Base_Circle-Mesh_0_indices","componentType":5123,"count":1140,"min":[0],"max":[227],"type":"SCALAR","bufferView":2,"byteOffset":0},{"name":"Lamp_Circle.001-Mesh_0_positions","componentType":5126,"count":100,"min":[-0.4148330092430115,-0.2789529860019684,-0.4148330092430115],"max":[0.4148330092430115,-0.2458609938621521,0.4148330092430115],"type":"VEC3","bufferView":0,"byteOffset":2736},{"name":"Lamp_Circle.001-Mesh_0_normals","componentType":5126,"count":100,"min":[-1,-0.6857030987739563,-1],"max":[1,0,1],"type":"VEC3","bufferView":1,"byteOffset":2736},{"name":"Lamp_Circle.001-Mesh_0_indices","componentType":5123,"count":282,"min":[0],"max":[99],"type":"SCALAR","bufferView":2,"byteOffset":2280},{"name":"pole_Cylinder-Mesh_0_positions","componentType":5126,"count":81,"min":[-0.035829998552799225,-0.03600100055336952,-0.035829998552799225],"max":[0.035829998552799225,1.6852760314941406,0.035829998552799225],"type":"VEC3","bufferView":0,"byteOffset":3936},{"name":"pole_Cylinder-Mesh_0_normals","componentType":5126,"count":81,"min":[-0.7278916835784912,-0.6857030987739563,-0.7278916835784912],"max":[0.7278916835784912,0.6857030987739563,0.7278916835784912],"type":"VEC3","bufferView":1,"byteOffset":3936},{"name":"pole_Cylinder-Mesh_0_indices","componentType":5123,"count":372,"min":[0],"max":[80],"type":"SCALAR","bufferView":2,"byteOffset":2844},{"name":"Fans_Cube.003-Mesh_0_positions","componentType":5126,"count":48,"min":[-1.9016859531402588,-0.20657700300216675,-1.6017470359802246],"max":[1.314195990562439,-0.17723099887371063,1.801622986793518],"type":"VEC3","bufferView":0,"byteOffset":4908},{"name":"Fans_Cube.003-Mesh_0_normals","componentType":5126,"count":48,"min":[-0.9308741688728333,-0.5842480063438416,-0.8957887291908264],"max":[0.8188900947570801,0.5841155052185059,0.940194308757782],"type":"VEC3","bufferView":1,"byteOffset":4908},{"name":"Fans_Cube.003-Mesh_0_indices","componentType":5123,"count":252,"min":[0],"max":[47],"type":"SCALAR","bufferView":2,"byteOffset":3588}],"asset":{"generator":"obj2gltf","version":"2.0"},"buffers":[{"name":"input","byteLength":15060,"uri":"data:application/octet-stream;base64,"}],"bufferViews":[{"name":"bufferView_0","buffer":0,"byteLength":5484,"byteOffset":0,"byteStride":12,"target":34962},{"name":"bufferView_1","buffer":0,"byteLength":5484,"byteOffset":5484,"byteStride":12,"target":34962},{"name":"bufferView_3","buffer":0,"byteLength":4092,"byteOffset":10968,"target":34963}],"materials":[{"name":"Metal","pbrMetallicRoughness":{"baseColorFactor":[0.5,0.5,0.5,1],"metallicFactor":0,"roughnessFactor":1},"emissiveFactor":[0,0,0],"alphaMode":"OPAQUE","doubleSided":false},{"name":"Lamp","pbrMetallicRoughness":{"baseColorFactor":[0.5,0.5,0.5,1],"metallicFactor":0,"roughnessFactor":1},"emissiveFactor":[0,0,0],"alphaMode":"OPAQUE","doubleSided":false},{"name":"Wood","pbrMetallicRoughness":{"baseColorFactor":[0.5,0.5,0.5,1],"metallicFactor":0,"roughnessFactor":1},"emissiveFactor":[0,0,0],"alphaMode":"OPAQUE","doubleSided":false}],"meshes":[{"name":"Base_Circle-Mesh","primitives":[{"attributes":{"POSITION":0,"NORMAL":1},"indices":2,"material":0,"mode":4}]},{"name":"Lamp_Circle.001-Mesh","primitives":[{"attributes":{"POSITION":3,"NORMAL":4},"indices":5,"material":1,"mode":4}]},{"name":"pole_Cylinder-Mesh","primitives":[{"attributes":{"POSITION":6,"NORMAL":7},"indices":8,"material":0,"mode":4}]},{"name":"Fans_Cube.003-Mesh","primitives":[{"attributes":{"POSITION":9,"NORMAL":10},"indices":11,"material":2,"mode":4}]}],"nodes":[{"name":"Base_Circle","mesh":0},{"name":"Lamp_Circle.001","mesh":1},{"name":"pole_Cylinder","mesh":2},{"name":"Fans_Cube.003","mesh":3}],"scene":0,"scenes":[{"nodes":[0,1,2,3]}]}
